{"title":"Student.Bodies.2015.BRRip.480p.x264.AAC-VYTO [P2PDL]","uid":12355171,"size":346884805,"categoryP":"video","categoryS":"movies","magnet":"?xt=urn:btih:017666396d1b3c9c1a8d6ce8ba05d8433e02759e&amp;dn=Student.Bodies.2015.BRRip.480p.x264.AAC-VYTO+%5BP2PDL%5D&amp;tr=udp%3A%2F%2Ftracker.openbittorrent.com%3A80&amp;tr=udp%3A%2F%2Fopen.demonii.com%3A1337&amp;tr=udp%3A%2F%2Ftracker.coppersurfer.tk%3A6969&amp;tr=udp%3A%2F%2Fexodus.desync.com%3A6969","seeders":13,"leechers":4,"uploader":"ValidusVyto","files":6,"time":1441465847,"description":"____    ____ ____    ____ .___________.  ______   \n     /   /      /   / |           | /  __    \n    /   /      /   /  `---|  |----`|  |  |  | \n        /     _    _/       |  |     |  |  |  | \n       /        |  |         |  |     |  `--'  | \n    __/         |__|         |__|      ______/  \n                                                  \nPresenting Small Encodes with quality for years!\n                                                                                                   \n                                                                                                   \n\nStudent.Bodies.2015.BRRip.480p.x264.AAC-VYTO\n\n\nGenre: Comedy  &lt;a href=&quot;\nhttp://www.imdb.com/title/tt3132422/&quot; rel=&quot;nofollow&quot; target=&quot;_NEW&quot;&gt;\nhttp://www.imdb.com/title/tt3132422/&lt;/a&gt;\n\n\nGeneral\nFormat                         : MPEG-4\nFile size                      : 326 MiB\nDuration                       : 1h 31mn\nOverall bit rate               : 498 Kbps\n\nVideo\nFormat                         : AVC\nBit rate                       : 463 Kbps\nWidth                          : 720 pixels\nHeight                         : 408 pixels\nDisplay aspect ratio           : 16:9\nFrame rate mode                : Constant\nFrame rate                     : 23.976 fps\nBit depth                      : 8 bits\nStream size                    : 303 MiB (93%)\nWriting library                : x264 core 148 r2597 \n\nAudio\nFormat                         : AAC\nBit rate mode                  : Variable\nBit rate                       : 32.0 Kbps\nChannel(s)                     : 2 channels \nChannel positions              : Front: L R \nSampling rate                  : 48.0 KHz \nStream size                    : 21.0 MiB (6%)\nLanguage                       : English\n\nSubtitle                       : N/a\nSource                     \t   : 720p.BluRay.x264.DTS\n\nScreenshots:\n &lt;a href=&quot;\nhttp://ititli.com/LL&quot; rel=&quot;nofollow&quot; target=&quot;_NEW&quot;&gt;\nhttp://ititli.com/LL&lt;/a&gt; &lt;a href=&quot;\nhttp://ititli.com/Ld&quot; rel=&quot;nofollow&quot; target=&quot;_NEW&quot;&gt;\nhttp://ititli.com/Ld&lt;/a&gt; &lt;a href=&quot;\nhttp://ititli.com/L0&quot; rel=&quot;nofollow&quot; target=&quot;_NEW&quot;&gt;\nhttp://ititli.com/L0&lt;/a&gt; &lt;a href=&quot;\nhttp://ititli.com/LA&quot; rel=&quot;nofollow&quot; target=&quot;_NEW&quot;&gt;\nhttp://ititli.com/LA&lt;/a&gt; &lt;a href=&quot;\nhttp://ititli.com/Ll&quot; rel=&quot;nofollow&quot; target=&quot;_NEW&quot;&gt;\nhttp://ititli.com/Ll&lt;/a&gt; &lt;a href=&quot;\nhttp://ititli.com/Lm&quot; rel=&quot;nofollow&quot; target=&quot;_NEW&quot;&gt;\nhttp://ititli.com/Lm&lt;/a&gt; &lt;a href=&quot;\nhttp://ititli.com/Lx&quot; rel=&quot;nofollow&quot; target=&quot;_NEW&quot;&gt;\nhttp://ititli.com/Lx&lt;/a&gt; &lt;a href=&quot;\nhttp://ititli.com/L7&quot; rel=&quot;nofollow&quot; target=&quot;_NEW&quot;&gt;\nhttp://ititli.com/L7&lt;/a&gt; &lt;a href=&quot;\nhttp://ititli.com/LC&quot; rel=&quot;nofollow&quot; target=&quot;_NEW&quot;&gt;\nhttp://ititli.com/LC&lt;/a&gt; &lt;a href=&quot;\nhttp://ititli.com/LF&quot; rel=&quot;nofollow&quot; target=&quot;_NEW&quot;&gt;\nhttp://ititli.com/LF&lt;/a&gt; &lt;a href=&quot;\nhttp://ititli.com/LJ&quot; rel=&quot;nofollow&quot; target=&quot;_NEW&quot;&gt;\nhttp://ititli.com/LJ&lt;/a&gt; &lt;a href=&quot;\nhttp://ititli.com/L5&quot; rel=&quot;nofollow&quot; target=&quot;_NEW&quot;&gt;\nhttp://ititli.com/L5&lt;/a&gt; &lt;a href=&quot;\nhttp://ititli.com/LB&quot; rel=&quot;nofollow&quot; target=&quot;_NEW&quot;&gt;\nhttp://ititli.com/LB&lt;/a&gt; &lt;a href=&quot;\nhttp://ititli.com/LN&quot; rel=&quot;nofollow&quot; target=&quot;_NEW&quot;&gt;\nhttp://ititli.com/LN&lt;/a&gt; &lt;a href=&quot;\nhttp://ititli.com/LP&quot; rel=&quot;nofollow&quot; target=&quot;_NEW&quot;&gt;\nhttp://ititli.com/LP&lt;/a&gt;\n\n----------------------------------------------------------------------------------------------------\n\n\nEncoder Notes: Looking For Early Access To Anything You Can Provide DVDScr, R5, DVDR, BluRay, Direct\nAudio, Music Releases and Seedboxes. If You Got anything to offer please contact us.\n\nSupport us by donating BC - 1FgwdzPsd1y25Gea8wP1qni35uGCtmkRCD","torrent":{"xt":"urn:btih:017666396d1b3c9c1a8d6ce8ba05d8433e02759e","amp;dn":"Student.Bodies.2015.BRRip.480p.x264.AAC-VYTO+%5BP2PDL%5D","amp;tr":["udp%3A%2F%2Ftracker.openbittorrent.com%3A80","udp%3A%2F%2Fopen.demonii.com%3A1337","udp%3A%2F%2Ftracker.coppersurfer.tk%3A6969","udp%3A%2F%2Fexodus.desync.com%3A6969"],"infoHash":"017666396d1b3c9c1a8d6ce8ba05d8433e02759e","infoHashBuffer":{"type":"Buffer","data":[1,118,102,57,109,27,60,156,26,141,108,232,186,5,216,67,62,2,117,158]},"announce":[],"urlList":[]}}